<?xml version="1.0" encoding="UTF-8"?>
<svg xmlns="http://www.w3.org/2000/svg" xmlns:xlink="http://www.w3.org/1999/xlink" viewBox="0 0 1575.14 1892.2">
  <defs>
    <style>
      .cls-1 {
        fill: #4d4d4d;
        stroke: #54524f;
        stroke-miterlimit: 10;
      }

      .cls-2 {
        fill: url(#linear-gradient);
      }

      .cls-3 {
        fill: #54524f;
      }
    </style>
    <linearGradient id="linear-gradient" x1="0" y1="691.91" x2="1575.14" y2="691.91" gradientUnits="userSpaceOnUse">
      <stop offset="0" stop-color="#f1cb82"/>
      <stop offset=".5" stop-color="#927549"/>
      <stop offset=".64" stop-color="#b6955e"/>
      <stop offset=".79" stop-color="#d6b271"/>
      <stop offset=".91" stop-color="#e9c47d"/>
      <stop offset="1" stop-color="#f1cb82"/>
    </linearGradient>
  </defs>
  <g id="KioxRegistro">
    <g>
      <path class="cls-3" d="M648.61,1410.15v2.37c-5.07.37-9.55,1.07-13.44,2.09-3.89,1.02-7.79,3.57-11.72,7.65-2.86,3.06-4.81,5.1-5.83,6.12-1.02,1.02-2.15,2.18-3.37,3.48l-61.59,69.02,73.62,94.34c5.72,7.24,10.61,11.78,14.66,13.64,4.05,1.86,9.22,3.2,15.52,4.04v2.23h-39.02l-80.86-103.67v78.9c0,14.56,6.46,22.08,19.39,22.54v2.23h-57.3v-2.23c3.6-.18,6.79-.95,9.57-2.3,2.78-1.34,5.09-3.66,6.93-6.96,1.84-3.29,2.76-7.72,2.76-13.29v-155.57c0-8.63-1.9-14.45-5.71-17.46-3.8-3.01-8.32-4.61-13.56-4.8v-2.37h57.3v2.37c-12.93.47-19.39,7.89-19.39,22.26v75.7l69.32-78.62c0,.19.16-.09.49-.83,3.84-3.99,5.77-7.42,5.77-10.3,0-3.25-1.13-5.29-3.37-6.12-2.25-.83-5.62-1.53-10.12-2.09v-2.37h49.94Z"/>
      <path class="cls-3" d="M724.56,1410.15v2.37c-5.4,0-9.98,1.72-13.74,5.15-3.76,3.43-5.64,9.14-5.64,17.12v155.57c0,7.89,2,13.62,6.01,17.18,4.01,3.57,8.47,5.36,13.37,5.36v2.23h-57.3v-2.23c5.23,0,9.75-1.74,13.56-5.22s5.71-9.25,5.71-17.32v-155.57c0-8.53-1.9-14.38-5.71-17.53-3.8-3.15-8.32-4.73-13.56-4.73v-2.37h57.3Z"/>
      <path class="cls-3" d="M937.8,1512.84c0,19.2-4.19,37.06-12.58,53.57-8.38,16.51-19.81,29.66-34.29,39.45s-30.51,14.68-48.1,14.68-33.86-4.89-48.59-14.68-26.32-22.98-34.78-39.59c-8.47-16.6-12.7-34.69-12.7-54.27,0-15.03,2.52-29.15,7.55-42.37,5.03-13.22,12.06-24.74,21.1-34.58,9.04-9.83,19.34-17.44,30.92-22.82,11.57-5.38,23.66-8.07,36.26-8.07s24.21,2.57,35.58,7.72c11.37,5.15,21.57,12.59,30.61,22.33,9.04,9.74,16.13,21.29,21.29,34.65s7.73,28.02,7.73,43.97ZM916.21,1513.4c0-27.27-4.25-48.61-12.76-64.01-8.51-15.4-18.32-25.72-29.45-30.96-11.12-5.24-21.59-7.86-31.41-7.86-7.61,0-15.5,1.42-23.68,4.24-8.18,2.83-16.13,8-23.86,15.52-7.73,7.51-14.09,18.09-19.08,31.73-4.99,13.64-7.48,30.47-7.48,50.51,0,17.63,2.07,33,6.2,46.13,4.13,13.13,9.82,23.84,17.05,32.14,7.24,8.3,15.21,14.29,23.93,17.95,8.71,3.67,17.77,5.5,27.18,5.5,8.42,0,16.95-1.69,25.58-5.08,8.63-3.38,16.52-8.91,23.68-16.56,7.16-7.65,12.96-18.04,17.42-31.17,4.46-13.13,6.69-29.15,6.69-48.08Z"/>
      <path class="cls-3" d="M1114.98,1410.15v2.37c-4.09.56-8.1,1.93-12.02,4.11-3.93,2.18-8.51,7.07-13.74,14.68-5.89,7.98-9.25,12.71-10.06,14.19l-38.53,59.56,45.77,77.65c5.64,9.65,10.8,16.63,15.46,20.94,4.66,4.31,8.71,6.94,12.15,7.86,3.44.93,7.32,1.39,11.66,1.39v2.23h-68.1v-2.23c5.81-.09,9.59-1.62,11.35-4.59,1.76-2.97,2.64-5.75,2.64-8.35,0-3.8-1.68-8.63-5.03-14.47l-36.69-62.76-36.93,57.89c-4.66,7.14-6.99,13.41-6.99,18.79,0,2.69.98,5.66,2.94,8.91,1.96,3.25,6.18,4.78,12.64,4.59v2.23h-54.11v-2.23c10.63.28,19.63-4.68,26.99-14.89,4.99-6.77,7.73-10.58,8.22-11.41l44.05-68.88-44.78-76.67c-6.87-12.06-12.64-19.69-17.3-22.89-4.66-3.2-9.94-5.08-15.83-5.64v-2.37h65.03v2.37c-5.89.37-9.88,1.83-11.96,4.38-2.09,2.55-3.13,5.36-3.13,8.42,0,4.92,2.09,11.09,6.26,18.51l32.76,55.94,36.2-55.94c5.15-8.25,7.73-14.7,7.73-19.34,0-2.41-.84-4.92-2.52-7.51-1.68-2.6-5.46-4.08-11.35-4.45v-2.37h47.24Z"/>
    </g>
    <g>
      <path class="cls-3" d="M568.53,1672.26v-.5h22.84v6.56h-.41c-.1-1.35-.54-2.55-1.3-3.62-.77-1.06-2.08-1.6-3.94-1.6h-9.14v19.54h8.52c1.62,0,2.72-.38,3.31-1.13s.96-1.79,1.14-3.12h.41v9.79h-.41c-.1-1.23-.46-2.24-1.07-3.03-.61-.79-1.74-1.19-3.37-1.19h-8.52v15.73c0,1.43.36,2.57,1.08,3.44.72.87,1.59,1.3,2.61,1.3h.54v.47h-12.27v-.47h.52c1.03,0,1.89-.44,2.57-1.32s1.02-2.02,1.02-3.43v-32.64c0-1.86-.37-3.12-1.11-3.79-.74-.67-1.57-1.01-2.48-1.01h-.52Z"/>
      <path class="cls-3" d="M607.72,1671.76v.5c-1.14,0-2.1.36-2.89,1.08-.79.72-1.19,1.92-1.19,3.6v32.75c0,1.66.42,2.87,1.27,3.62.84.75,1.78,1.13,2.82,1.13v.47h-12.06v-.47c1.1,0,2.05-.37,2.85-1.1s1.2-1.95,1.2-3.65v-32.75c0-1.8-.4-3.03-1.2-3.69s-1.75-1-2.85-1v-.5h12.06Z"/>
      <path class="cls-3" d="M631.12,1680.05h-.41c-.24-2.09-1.05-3.92-2.42-5.49s-3.17-2.36-5.41-2.36c-1.46,0-2.76.39-3.9,1.17s-2.02,1.85-2.64,3.19c-.62,1.35-.93,2.89-.93,4.63,0,1.35.18,2.54.56,3.59.37,1.04.92,1.97,1.64,2.77.72.8,1.58,1.55,2.56,2.24.98.69,2.31,1.57,3.98,2.62,2.79,1.74,4.96,3.47,6.51,5.2,1.55,1.73,2.32,4.1,2.32,7.1,0,1.84-.42,3.61-1.25,5.32s-2.1,3.11-3.78,4.2c-1.69,1.09-3.78,1.64-6.28,1.64-1.57,0-2.95-.19-4.16-.57-1.21-.38-2.43-.91-3.67-1.6-.52-.2-.87-.29-1.06-.29-.36,0-.6.15-.71.44-.11.29-.26.93-.45,1.9h-.44v-10.81h.44c.62,3.16,1.83,5.56,3.62,7.18s3.97,2.43,6.54,2.43c1.93,0,3.47-.41,4.64-1.23s1.97-1.82,2.42-2.99c.45-1.17.67-2.34.67-3.52,0-2.42-.65-4.4-1.95-5.93-1.3-1.53-3.28-3.1-5.93-4.7-1.83-1.13-3.18-2.01-4.06-2.64s-1.77-1.44-2.67-2.43c-.9-1-1.62-2.17-2.16-3.53-.53-1.36-.8-2.92-.8-4.67,0-2.03.47-3.97,1.42-5.83s2.29-3.34,4.03-4.47c1.74-1.12,3.71-1.68,5.92-1.68,1.67,0,3.38.32,5.14.97.28.16.65.23,1.11.23.57,0,.96-.44,1.16-1.32h.41v9.23Z"/>
      <path class="cls-3" d="M648.51,1671.76v.5c-1.14,0-2.1.36-2.89,1.08-.79.72-1.19,1.92-1.19,3.6v32.75c0,1.66.42,2.87,1.27,3.62.84.75,1.78,1.13,2.82,1.13v.47h-12.06v-.47c1.1,0,2.05-.37,2.85-1.1s1.2-1.95,1.2-3.65v-32.75c0-1.8-.4-3.03-1.2-3.69s-1.75-1-2.85-1v-.5h12.06Z"/>
      <path class="cls-3" d="M693.41,1693.38c0,4.04-.88,7.8-2.65,11.28s-4.17,6.25-7.22,8.31c-3.05,2.06-6.42,3.09-10.13,3.09s-7.13-1.03-10.23-3.09c-3.1-2.06-5.54-4.84-7.32-8.33-1.78-3.5-2.67-7.3-2.67-11.43,0-3.16.53-6.14,1.59-8.92,1.06-2.78,2.54-5.21,4.44-7.28s4.07-3.67,6.51-4.8,4.98-1.7,7.63-1.7,5.1.54,7.49,1.63c2.39,1.08,4.54,2.65,6.45,4.7,1.9,2.05,3.4,4.48,4.48,7.29s1.63,5.9,1.63,9.26ZM688.86,1693.5c0-5.74-.9-10.23-2.69-13.48-1.79-3.24-3.86-5.42-6.2-6.52s-4.55-1.66-6.61-1.66c-1.6,0-3.26.3-4.99.89s-3.4,1.68-5.02,3.27-2.97,3.81-4.02,6.68-1.58,6.42-1.58,10.63c0,3.71.43,6.95,1.3,9.71.87,2.76,2.07,5.02,3.59,6.77,1.52,1.75,3.2,3.01,5.04,3.78s3.74,1.16,5.72,1.16c1.77,0,3.57-.36,5.39-1.07s3.48-1.88,4.99-3.49c1.51-1.61,2.73-3.8,3.67-6.56s1.41-6.14,1.41-10.12Z"/>
      <path class="cls-3" d="M729.29,1680.17h-.41c-.19-2.81-.91-4.63-2.17-5.46-1.26-.83-2.81-1.25-4.65-1.25h-7.57v36.24c0,3.07,1.38,4.65,4.13,4.75v.47h-12.12v-.47c1.14-.04,2.1-.42,2.88-1.13s1.18-1.92,1.18-3.62v-36.24h-7.57c-1.84,0-3.39.42-4.64,1.25-1.25.83-1.98,2.65-2.18,5.46h-.41v-10.55h.41c.28.49.52.85.72,1.08.21.23.47.43.8.6.33.17.71.28,1.15.35s.96.1,1.56.1h24.64c1.64,0,2.91-.71,3.82-2.14h.41v10.55Z"/>
      <path class="cls-3" d="M732.05,1672.26v-.5h22.68v6.8h-.36c0-3.63-2.14-5.45-6.41-5.45h-7.93v19.6h6.97c1.38,0,2.61-.25,3.69-.76s1.7-1.67,1.86-3.49h.39v9.79h-.39c-.16-1.11-.45-1.97-.88-2.56-.43-.6-.86-.99-1.28-1.19-.42-.2-.8-.29-1.12-.29-.62-.12-1.27-.18-1.94-.18h-7.31v15.32c0,1.15.19,2.15.58,2.99.39.84,1.29,1.26,2.7,1.26h5.66c1.36,0,2.48-.22,3.36-.67.88-.45,1.57-1.07,2.08-1.88s.93-1.77,1.28-2.9h.36l-1.32,6.77h-22.68v-.47h.52c.81,0,1.6-.37,2.38-1.11.77-.74,1.16-1.95,1.16-3.63v-32.52c0-1.33-.26-2.48-.79-3.46-.53-.98-1.44-1.46-2.75-1.46h-.52Z"/>
      <path class="cls-3" d="M759.49,1672.38h-.52v-.62h13.17c2.12,0,3.91.37,5.39,1.11,1.47.74,2.62,1.68,3.44,2.83.82,1.14,1.4,2.35,1.76,3.62s.53,2.52.53,3.75c0,1.56-.29,3.06-.87,4.5-.58,1.44-1.46,2.67-2.66,3.71-1.2,1.04-2.69,1.74-4.48,2.11v.12c2.27,1.25,4.37,3.73,6.3,7.44l3.44,6.59c1.55,2.95,2.79,4.81,3.73,5.6s1.86,1.22,2.78,1.32v.47h-6.92c-.29-.43-.57-.84-.83-1.25s-.53-.83-.83-1.27c-.17-.29-.43-.74-.76-1.33-.34-.6-.54-.93-.61-1.01l-4.55-8.53c-.91-1.74-1.85-3.15-2.8-4.23-.96-1.08-1.85-1.86-2.67-2.33s-1.57-.76-2.23-.88c-.66-.12-1.44-.18-2.34-.18v15.79c0,3.07,1.38,4.65,4.13,4.75v.47h-12.12v-.47c.76-.04,1.43-.2,2.02-.48.59-.28,1.07-.77,1.46-1.46s.58-1.63.58-2.8v-32.64c0-1.72-.37-2.93-1.11-3.63-.74-.7-1.55-1.05-2.43-1.05ZM766.95,1692.77h2.17c2.27,0,4.14-.37,5.59-1.11,1.46-.74,2.51-1.8,3.16-3.18.65-1.38.98-3.06.98-5.05,0-1.66-.29-3.29-.88-4.88s-1.58-2.93-2.98-4.01c-1.4-1.08-3.29-1.63-5.67-1.63-.96,0-1.76.09-2.38.26v19.6Z"/>
      <path class="cls-3" d="M811.1,1671.23l11.39,36.97c.6,1.91,1.17,3.3,1.71,4.16s1.05,1.4,1.54,1.63c.49.22,1.12.38,1.87.45v.47h-12.43v-.47c1.27,0,2.26-.14,2.95-.41.69-.27,1.03-1.02,1.03-2.23,0-.66-.16-1.55-.49-2.67-.07-.16-.1-.27-.1-.35l-3.38-11.46h-13.17l-3.02,10.61c-.41,1.45-.62,2.61-.62,3.49,0,1.21.27,2.02.8,2.42.53.4,1.29.6,2.27.6v.47h-8.94v-.47c1.27-.14,2.29-.69,3.06-1.66.77-.97,1.43-2.44,2-4.41l10.75-37.15h2.79ZM802.44,1695.79h12.12l-6.2-20.48h-.1l-5.81,20.48Z"/>
      <path class="cls-3" d="M830.27,1672.26v-.5h12.48c2.08,0,3.92.32,5.51.97s2.92,1.52,3.98,2.64c1.06,1.11,1.85,2.37,2.38,3.76s.79,2.87.79,4.41-.25,2.95-.74,4.35c-.49,1.4-1.26,2.64-2.31,3.72s-2.43,1.95-4.13,2.59-3.67.97-5.89.97c-.71,0-2.07-.12-4.08-.35v14.88c0,3.07,1.38,4.65,4.13,4.75v.47h-12.12v-.47c1.19-.04,2.17-.42,2.93-1.16.77-.73,1.15-1.93,1.15-3.59v-32.64c0-1-.14-1.83-.41-2.49-.28-.66-.6-1.14-.97-1.42-.37-.28-.78-.49-1.24-.63-.46-.14-.77-.22-.94-.26h-.52ZM838.25,1673.29v20.33c1.33.27,2.63.41,3.93.41,2.46,0,4.55-.72,6.26-2.15,1.71-1.44,2.57-4.1,2.57-7.98,0-3.2-.75-5.83-2.26-7.9s-3.79-3.09-6.86-3.09c-1.19,0-2.4.13-3.64.38Z"/>
      <path class="cls-3" d="M870.95,1671.76v.5c-1.14,0-2.1.36-2.89,1.08s-1.19,1.92-1.19,3.6v32.75c0,1.66.42,2.87,1.27,3.62s1.78,1.13,2.82,1.13v.47h-12.06v-.47c1.1,0,2.05-.37,2.85-1.1s1.2-1.95,1.2-3.65v-32.75c0-1.8-.4-3.03-1.2-3.69s-1.75-1-2.85-1v-.5h12.06Z"/>
      <path class="cls-3" d="M892.14,1671.23l11.39,36.97c.6,1.91,1.17,3.3,1.71,4.16.53.86,1.05,1.4,1.54,1.63.49.22,1.12.38,1.87.45v.47h-12.42v-.47c1.27,0,2.26-.14,2.94-.41s1.03-1.02,1.03-2.23c0-.66-.16-1.55-.49-2.67-.07-.16-.1-.27-.1-.35l-3.38-11.46h-13.17l-3.02,10.61c-.41,1.45-.62,2.61-.62,3.49,0,1.21.27,2.02.8,2.42.53.4,1.29.6,2.27.6v.47h-8.94v-.47c1.27-.14,2.29-.69,3.06-1.66.77-.97,1.43-2.44,2-4.41l10.75-37.15h2.79ZM883.48,1695.79h12.12l-6.2-20.48h-.1l-5.81,20.48Z"/>
      <path class="cls-3" d="M964.13,1686.65v.5c-1.28.06-2.31.35-3.1.88s-1.49,1.36-2.11,2.49-1.24,2.65-1.9,4.54c-.74,2.15-1.38,3.86-1.91,5.14-.53,1.28-1,2.28-1.4,3s-.77,1.37-1.14,1.93c.12.12.77.78,1.94,1.99s2.17,2.25,3,3.11c1.88,1.8,3.34,2.94,4.38,3.43s2.09.75,3.14.79v.47h-8.06c-2.96-2.68-5.17-4.79-6.61-6.36-.98,1.46-2.48,3.04-4.48,4.73-2.01,1.69-4.37,2.53-7.09,2.53-1.46,0-2.81-.28-4.04-.85s-2.32-1.38-3.27-2.45c-.95-1.06-1.67-2.26-2.17-3.57-.5-1.32-.75-2.69-.75-4.12,0-2.77.75-5.25,2.25-7.43s3.32-4.07,5.48-5.67l-.36-.41c-1.57-1.99-2.79-3.82-3.68-5.49s-1.33-3.41-1.33-5.23.42-3.41,1.25-4.97c.83-1.55,1.99-2.8,3.47-3.74,1.48-.94,3.14-1.41,4.99-1.41,2.41,0,4.36.76,5.84,2.29s2.22,3.39,2.22,5.6c0,2.48-.85,4.68-2.54,6.61s-3.74,3.72-6.13,5.38c.88,1.15,2.26,2.81,4.13,4.98l3.75,4.45c1.46,1.74,2.75,3.19,3.88,4.37.91-1.6,1.9-3.88,2.96-6.83,1.06-2.95,1.59-5.35,1.59-7.21,0-1.21-.28-2-.84-2.37s-1.27-.58-2.13-.62v-.5h10.8ZM936.98,1692.77c-3.56,2.71-5.35,5.92-5.35,9.61,0,1.89.46,3.63,1.37,5.2s2.1,2.8,3.57,3.68c1.46.88,2.94,1.32,4.44,1.32,1.31,0,2.51-.26,3.59-.79s2-1.13,2.74-1.82c.74-.68,1.49-1.46,2.25-2.31-1.48-1.6-2.61-2.85-3.4-3.74-.78-.89-1.61-1.84-2.48-2.86-.87-1.02-1.78-2.11-2.74-3.28s-2.29-2.84-3.99-5.01ZM939.31,1689.37c1.83-1.33,3.31-2.72,4.44-4.19,1.14-1.46,1.7-3.25,1.7-5.36,0-1.25-.26-2.46-.77-3.63s-1.27-2.12-2.25-2.84c-.98-.72-2.09-1.08-3.33-1.08-1.72,0-3.04.58-3.94,1.73s-1.36,2.52-1.36,4.1c0,1.07.28,2.31.84,3.71s1.27,2.75,2.12,4.06,1.7,2.48,2.54,3.52Z"/>
      <path class="cls-3" d="M1004.61,1680.05h-.41c-.24-2.09-1.05-3.92-2.42-5.49s-3.17-2.36-5.41-2.36c-1.46,0-2.76.39-3.9,1.17s-2.01,1.85-2.63,3.19-.93,2.89-.93,4.63c0,1.35.18,2.54.56,3.59.37,1.04.92,1.97,1.64,2.77.72.8,1.58,1.55,2.56,2.24s2.31,1.57,3.98,2.62c2.79,1.74,4.96,3.47,6.51,5.2,1.55,1.73,2.33,4.1,2.33,7.1,0,1.84-.42,3.61-1.25,5.32-.84,1.71-2.1,3.11-3.79,4.2s-3.78,1.64-6.28,1.64c-1.57,0-2.95-.19-4.16-.57-1.21-.38-2.43-.91-3.67-1.6-.52-.2-.87-.29-1.06-.29-.36,0-.6.15-.71.44s-.26.93-.45,1.9h-.44v-10.81h.44c.62,3.16,1.83,5.56,3.62,7.18,1.79,1.62,3.97,2.43,6.54,2.43,1.93,0,3.47-.41,4.64-1.23,1.16-.82,1.97-1.82,2.42-2.99.45-1.17.67-2.34.67-3.52,0-2.42-.65-4.4-1.95-5.93-1.3-1.53-3.28-3.1-5.93-4.7-1.83-1.13-3.18-2.01-4.06-2.64-.88-.62-1.77-1.44-2.67-2.43-.9-1-1.62-2.17-2.16-3.53-.53-1.36-.8-2.92-.8-4.67,0-2.03.47-3.97,1.42-5.83.95-1.86,2.29-3.34,4.03-4.47s3.71-1.68,5.92-1.68c1.67,0,3.38.32,5.14.97.28.16.65.23,1.11.23.57,0,.96-.44,1.16-1.32h.41v9.23Z"/>
      <path class="cls-3" d="M1009.98,1672.26v-.5h12.48c2.08,0,3.92.32,5.51.97s2.92,1.52,3.98,2.64c1.06,1.11,1.85,2.37,2.38,3.76s.79,2.87.79,4.41-.25,2.95-.74,4.35c-.49,1.4-1.26,2.64-2.31,3.72s-2.43,1.95-4.13,2.59-3.67.97-5.89.97c-.71,0-2.07-.12-4.08-.35v14.88c0,3.07,1.38,4.65,4.13,4.75v.47h-12.12v-.47c1.19-.04,2.17-.42,2.93-1.16.77-.73,1.15-1.93,1.15-3.59v-32.64c0-1-.14-1.83-.41-2.49-.28-.66-.6-1.14-.97-1.42-.37-.28-.78-.49-1.24-.63-.46-.14-.77-.22-.94-.26h-.52ZM1017.97,1673.29v20.33c1.33.27,2.63.41,3.93.41,2.46,0,4.55-.72,6.26-2.15,1.71-1.44,2.57-4.1,2.57-7.98,0-3.2-.75-5.83-2.26-7.9s-3.79-3.09-6.86-3.09c-1.19,0-2.4.13-3.64.38Z"/>
      <path class="cls-3" d="M1052.25,1671.23l11.39,36.97c.6,1.91,1.17,3.3,1.71,4.16.53.86,1.05,1.4,1.54,1.63.49.22,1.12.38,1.87.45v.47h-12.42v-.47c1.27,0,2.26-.14,2.94-.41s1.03-1.02,1.03-2.23c0-.66-.16-1.55-.49-2.67-.07-.16-.1-.27-.1-.35l-3.38-11.46h-13.17l-3.02,10.61c-.41,1.45-.62,2.61-.62,3.49,0,1.21.27,2.02.8,2.42.53.4,1.29.6,2.27.6v.47h-8.94v-.47c1.27-.14,2.29-.69,3.06-1.66.77-.97,1.43-2.44,2-4.41l10.75-37.15h2.79ZM1043.59,1695.79h12.12l-6.2-20.48h-.1l-5.81,20.48Z"/>
    </g>
  </g>
  <g id="silueta">
    <path class="cls-3" d="M900.64,493.11c54.42-128.85,410.07-395.61,410.07-395.61l-511.06,369.43L264.11,100.41s407.54,349.71,422.31,401.43c4.21,14.75,8.85,54.77,12.61,93.54-3.41,21.05-9.06,44.05-19.89,67.72-18.06,39.47-26.88,71.7-28.6,86.7-4.94,43.07,11.42,103.34,57.95,187.5,25.84,36.65,53.07,74.76,78.91,111.42,29.35-36.65,57.31-74.76,86.66-111.42,60.96-105.03,65.48-147.32,62.47-195.26-2.03-32.28-16.74-41.39-35.37-90.93-1.36-3.61-2.64-7.2-3.85-10.76-4.83-49.15-8.79-118.57,3.32-147.24Z"/>
    <ellipse class="cls-1" cx="796.22" cy="288.97" rx="110.34" ry="107.11"/>
  </g>
  <g id="coraon">
    <path class="cls-2" d="M952.66,71.24c-61.86,42.47,573.44-237.06,406.51,376.87-50.97,187.45-571.75,766.78-571.75,766.78,0,0-520.79-579.33-571.75-766.78C48.73-165.82,653.62,97.5,622.16,71.24,416.94-100.04-84.99,41.6,12.4,452.34c97.39,410.74,775.01,931.49,775.01,931.49,0,0,677.62-520.74,775.01-931.49C1659.81,41.6,1173.03-80.05,952.66,71.24Z"/>
  </g>
</svg>