<?xml version="1.0" encoding="UTF-8"?>
<svg xmlns="http://www.w3.org/2000/svg" xmlns:xlink="http://www.w3.org/1999/xlink" viewBox="0 0 2479.59 1307.29">
  <defs>
    <style>
      .cls-1 {
        fill: #4d4d4d;
        stroke: #54524f;
        stroke-miterlimit: 10;
      }

      .cls-2 {
        fill: url(#linear-gradient);
      }

      .cls-3 {
        fill: #54524f;
      }
    </style>
    <linearGradient id="linear-gradient" x1="132.26" y1="653.65" x2="1189.24" y2="653.65" gradientUnits="userSpaceOnUse">
      <stop offset="0" stop-color="#f1cb82"/>
      <stop offset=".5" stop-color="#927549"/>
      <stop offset=".64" stop-color="#b6955e"/>
      <stop offset=".79" stop-color="#d6b271"/>
      <stop offset=".91" stop-color="#e9c47d"/>
      <stop offset="1" stop-color="#f1cb82"/>
    </linearGradient>
  </defs>
  <g id="KioxRegistro">
    <g>
      <path class="cls-3" d="M1567.14,408.65v3.86c-8.24.61-15.52,1.74-21.83,3.41-6.31,1.67-12.66,5.84-19.03,12.5-4.65,5-7.81,8.34-9.47,10-1.66,1.67-3.49,3.56-5.48,5.68l-100.06,112.76,119.59,154.14c9.3,11.82,17.24,19.25,23.82,22.28,6.58,3.03,14.98,5.23,25.21,6.59v3.64h-63.38l-131.35-169.37v128.9c0,23.79,10.5,36.07,31.49,36.83v3.64h-93.08v-3.64c5.85-.3,11.03-1.55,15.55-3.75,4.52-2.2,8.27-5.98,11.26-11.37,2.99-5.38,4.48-12.62,4.48-21.71v-254.16c0-14.1-3.09-23.6-9.27-28.53-6.18-4.92-13.52-7.54-22.03-7.84v-3.86h93.08v3.86c-21,.76-31.49,12.88-31.49,36.37v123.67l112.62-128.45c0,.31.26-.15.8-1.36,6.25-6.51,9.37-12.12,9.37-16.82,0-5.3-1.83-8.64-5.48-10-3.66-1.36-9.14-2.5-16.44-3.41v-3.86h81.12Z"/>
      <path class="cls-3" d="M1690.52,408.65v3.86c-8.77,0-16.21,2.81-22.32,8.41-6.11,5.61-9.17,14.93-9.17,27.96v254.16c0,12.88,3.25,22.24,9.77,28.08,6.51,5.84,13.75,8.75,21.73,8.75v3.64h-93.08v-3.64c8.5,0,15.85-2.84,22.03-8.52s9.27-15.12,9.27-28.3v-254.16c0-13.94-3.09-23.49-9.27-28.64-6.18-5.15-13.52-7.73-22.03-7.73v-3.86h93.08Z"/>
      <path class="cls-3" d="M2036.95,576.42c0,31.37-6.81,60.55-20.43,87.52-13.62,26.98-32.19,48.46-55.71,64.45s-49.57,23.98-78.13,23.98-55.01-8-78.93-23.98c-23.92-15.99-42.75-37.55-56.51-64.68-13.75-27.13-20.63-56.68-20.63-88.66,0-24.55,4.09-47.63,12.26-69.23,8.17-21.6,19.6-40.43,34.28-56.49,14.68-16.06,31.42-28.49,50.23-37.28,18.8-8.79,38.43-13.18,58.9-13.18s39.33,4.21,57.8,12.62c18.47,8.41,35.05,20.57,49.73,36.49,14.68,15.91,26.21,34.78,34.58,56.61s12.56,45.77,12.56,71.84ZM2001.87,577.33c0-44.56-6.91-79.42-20.73-104.58-13.82-25.16-29.77-42.02-47.84-50.58-18.07-8.56-35.08-12.84-51.03-12.84-12.36,0-25.18,2.31-38.47,6.93-13.29,4.63-26.21,13.07-38.77,25.35-12.56,12.28-22.89,29.55-31,51.83-8.11,22.28-12.16,49.79-12.16,82.52,0,28.8,3.36,53.92,10.07,75.36,6.71,21.45,15.95,38.95,27.71,52.51,11.76,13.57,24.72,23.34,38.87,29.33,14.15,5.99,28.87,8.98,44.15,8.98,13.68,0,27.54-2.76,41.56-8.3,14.02-5.53,26.84-14.55,38.47-27.05,11.63-12.5,21.06-29.48,28.3-50.92,7.24-21.44,10.86-47.63,10.86-78.54Z"/>
      <path class="cls-3" d="M2324.77,408.65v3.86c-6.65.91-13.16,3.16-19.53,6.71-6.38,3.56-13.82,11.56-22.32,23.98-9.57,13.04-15.02,20.77-16.35,23.19l-62.59,97.3,74.35,126.85c9.17,15.76,17.54,27.17,25.11,34.21,7.57,7.05,14.15,11.33,19.73,12.84,5.58,1.52,11.89,2.27,18.94,2.27v3.64h-110.62v-3.64c9.43-.15,15.58-2.65,18.44-7.5,2.86-4.85,4.28-9.4,4.28-13.64,0-6.21-2.72-14.1-8.17-23.64l-59.6-102.53-59.99,94.57c-7.58,11.67-11.36,21.9-11.36,30.69,0,4.4,1.59,9.25,4.78,14.55,3.19,5.31,10.03,7.81,20.53,7.5v3.64h-87.9v-3.64c17.27.45,31.89-7.65,43.85-24.32,8.1-11.06,12.56-17.28,13.35-18.64l71.56-112.53-72.75-125.26c-11.16-19.7-20.53-32.17-28.1-37.4-7.58-5.23-16.15-8.3-25.71-9.21v-3.86h105.64v3.86c-9.57.61-16.05,2.99-19.43,7.16-3.39,4.17-5.08,8.75-5.08,13.75,0,8.03,3.39,18.11,10.16,30.24l53.22,91.39,58.8-91.39c8.37-13.49,12.56-24.02,12.56-31.6,0-3.94-1.36-8.03-4.09-12.28-2.73-4.24-8.87-6.67-18.44-7.28v-3.86h76.74Z"/>
    </g>
    <g>
      <path class="cls-3" d="M1437.06,836.87v-.81h37.1v10.72h-.67c-.17-2.2-.87-4.17-2.12-5.91-1.25-1.74-3.38-2.61-6.4-2.61h-14.86v31.93h13.85c2.63,0,4.42-.61,5.37-1.84s1.57-2.93,1.85-5.1h.67v15.99h-.67c-.17-2.01-.75-3.66-1.74-4.95-.99-1.29-2.82-1.94-5.48-1.94h-13.85v25.7c0,2.33.59,4.2,1.76,5.62,1.17,1.42,2.59,2.13,4.24,2.13h.88v.77h-19.93v-.77h.84c1.68,0,3.07-.72,4.18-2.15s1.66-3.3,1.66-5.6v-53.32c0-3.03-.6-5.1-1.8-6.2-1.2-1.1-2.55-1.65-4.03-1.65h-.84Z"/>
      <path class="cls-3" d="M1500.72,836.05v.81c-1.85,0-3.41.59-4.7,1.77-1.29,1.18-1.93,3.14-1.93,5.89v53.51c0,2.71.69,4.68,2.06,5.91,1.37,1.23,2.9,1.84,4.57,1.84v.77h-19.6v-.77c1.79,0,3.34-.6,4.64-1.79s1.95-3.18,1.95-5.96v-53.51c0-2.94-.65-4.95-1.95-6.03s-2.85-1.63-4.64-1.63v-.81h19.6Z"/>
      <path class="cls-3" d="M1538.74,849.6h-.67c-.39-3.41-1.7-6.41-3.92-8.97s-5.16-3.85-8.79-3.85c-2.38,0-4.49.64-6.34,1.91s-3.27,3.02-4.28,5.22c-1.01,2.2-1.51,4.72-1.51,7.56,0,2.2.3,4.16.9,5.86.6,1.71,1.49,3.21,2.67,4.52,1.17,1.31,2.56,2.53,4.15,3.66,1.6,1.13,3.75,2.56,6.46,4.28,4.53,2.84,8.06,5.67,10.58,8.5,2.52,2.82,3.78,6.69,3.78,11.61,0,3-.68,5.9-2.04,8.69s-3.41,5.08-6.15,6.87c-2.74,1.79-6.14,2.68-10.2,2.68-2.55,0-4.8-.31-6.76-.93-1.96-.62-3.94-1.49-5.96-2.61-.84-.32-1.41-.48-1.72-.48-.59,0-.97.24-1.15.72-.18.48-.43,1.52-.73,3.11h-.71v-17.66h.71c1.01,5.17,2.97,9.08,5.87,11.73s6.45,3.97,10.62,3.97c3.13,0,5.64-.67,7.53-2.01s3.2-2.97,3.92-4.88c.73-1.91,1.09-3.83,1.09-5.74,0-3.96-1.06-7.19-3.17-9.69-2.11-2.5-5.32-5.07-9.63-7.68-2.97-1.85-5.16-3.29-6.59-4.31s-2.87-2.35-4.34-3.97c-1.47-1.63-2.64-3.55-3.5-5.77-.87-2.22-1.3-4.76-1.3-7.63,0-3.32.77-6.49,2.31-9.52s3.72-5.46,6.55-7.3c2.83-1.83,6.03-2.75,9.61-2.75,2.71,0,5.5.53,8.35,1.58.45.26,1.05.38,1.8.38.92,0,1.55-.72,1.89-2.15h.67v15.08Z"/>
      <path class="cls-3" d="M1566.98,836.05v.81c-1.85,0-3.41.59-4.7,1.77-1.29,1.18-1.93,3.14-1.93,5.89v53.51c0,2.71.69,4.68,2.06,5.91,1.37,1.23,2.9,1.84,4.57,1.84v.77h-19.6v-.77c1.79,0,3.34-.6,4.64-1.79s1.95-3.18,1.95-5.96v-53.51c0-2.94-.65-4.95-1.95-6.03s-2.85-1.63-4.64-1.63v-.81h19.6Z"/>
      <path class="cls-3" d="M1639.92,871.38c0,6.61-1.43,12.75-4.3,18.43-2.87,5.68-6.78,10.2-11.73,13.57-4.95,3.37-10.44,5.05-16.45,5.05s-11.58-1.68-16.62-5.05c-5.04-3.37-9-7.91-11.9-13.62-2.9-5.71-4.34-11.93-4.34-18.67,0-5.17.86-10.03,2.58-14.57,1.72-4.55,4.13-8.51,7.22-11.89s6.62-6,10.58-7.85c3.96-1.85,8.09-2.78,12.4-2.78s8.28.89,12.17,2.66c3.89,1.77,7.38,4.33,10.47,7.68,3.09,3.35,5.52,7.32,7.28,11.92s2.64,9.64,2.64,15.12ZM1632.53,871.57c0-9.38-1.46-16.72-4.36-22.02-2.91-5.3-6.27-8.85-10.07-10.65s-7.39-2.7-10.74-2.7c-2.6,0-5.3.49-8.1,1.46s-5.52,2.75-8.16,5.34-4.82,6.22-6.53,10.91-2.56,10.48-2.56,17.37c0,6.06.71,11.35,2.12,15.87,1.41,4.52,3.36,8.2,5.83,11.06,2.48,2.86,5.2,4.91,8.18,6.17s6.08,1.89,9.3,1.89c2.88,0,5.8-.58,8.75-1.75s5.65-3.06,8.1-5.7c2.45-2.63,4.43-6.21,5.96-10.72s2.29-10.03,2.29-16.54Z"/>
      <path class="cls-3" d="M1698.21,849.79h-.67c-.31-4.59-1.48-7.57-3.53-8.93-2.04-1.36-4.56-2.03-7.55-2.03h-12.3v59.21c0,5.01,2.24,7.59,6.71,7.75v.77h-19.68v-.77c1.85-.06,3.41-.68,4.68-1.84s1.91-3.14,1.91-5.91v-59.21h-12.3c-2.99,0-5.5.68-7.53,2.03-2.03,1.36-3.21,4.33-3.55,8.93h-.67v-17.23h.67c.45.8.84,1.39,1.18,1.77.34.38.77.71,1.3.98.53.27,1.15.46,1.87.57s1.56.17,2.54.17h40.03c2.66,0,4.73-1.16,6.21-3.49h.67v17.23Z"/>
      <path class="cls-3" d="M1702.7,836.87v-.81h36.85v11.1h-.59c0-5.94-3.47-8.9-10.41-8.9h-12.88v32.02h11.33c2.24,0,4.24-.41,6-1.24s2.77-2.73,3.02-5.7h.63v15.99h-.63c-.25-1.82-.73-3.21-1.43-4.19-.7-.97-1.39-1.62-2.08-1.94-.69-.32-1.29-.48-1.83-.48-1.01-.19-2.06-.29-3.16-.29h-11.88v25.03c0,1.88.31,3.51.94,4.88.63,1.37,2.09,2.06,4.39,2.06h9.19c2.21,0,4.03-.37,5.46-1.1,1.43-.73,2.55-1.75,3.38-3.06s1.52-2.89,2.08-4.74h.59l-2.14,11.06h-36.85v-.77h.84c1.32,0,2.6-.61,3.86-1.82,1.26-1.21,1.89-3.19,1.89-5.94v-53.13c0-2.17-.43-4.05-1.28-5.65-.85-1.6-2.34-2.39-4.47-2.39h-.84Z"/>
      <path class="cls-3" d="M1747.27,837.06h-.84v-1.01h21.4c3.44,0,6.36.61,8.75,1.82,2.39,1.21,4.25,2.75,5.58,4.62,1.33,1.87,2.28,3.84,2.85,5.91s.86,4.12.86,6.13c0,2.55-.47,5-1.41,7.35-.94,2.35-2.38,4.36-4.32,6.05-1.94,1.69-4.37,2.84-7.28,3.45v.19c3.69,2.04,7.11,6.09,10.24,12.16l5.58,10.77c2.52,4.82,4.54,7.87,6.06,9.14s3.03,1.99,4.51,2.15v.77h-11.25c-.48-.7-.92-1.38-1.34-2.03s-.87-1.35-1.34-2.08c-.28-.48-.69-1.2-1.24-2.18-.55-.97-.87-1.52-.99-1.65l-7.39-13.93c-1.48-2.84-3-5.15-4.55-6.92-1.55-1.77-3-3.04-4.34-3.81s-2.55-1.24-3.63-1.44c-1.08-.19-2.34-.29-3.8-.29v25.8c0,5.01,2.24,7.59,6.71,7.75v.77h-19.68v-.77c1.23-.06,2.32-.33,3.27-.79.95-.46,1.74-1.26,2.37-2.39s.94-2.66.94-4.57v-53.32c0-2.81-.6-4.79-1.8-5.94-1.2-1.15-2.52-1.72-3.95-1.72ZM1759.4,870.37h3.53c3.69,0,6.72-.61,9.09-1.82,2.36-1.21,4.08-2.94,5.14-5.19,1.06-2.25,1.59-5,1.59-8.26,0-2.71-.48-5.37-1.43-7.97s-2.57-4.79-4.85-6.56c-2.28-1.77-5.35-2.66-9.21-2.66-1.57,0-2.85.14-3.86.43v32.02Z"/>
      <path class="cls-3" d="M1831.11,835.19l18.51,60.4c.98,3.13,1.9,5.39,2.77,6.8s1.7,2.29,2.5,2.66c.8.37,1.81.61,3.04.74v.77h-20.19v-.77c2.07,0,3.66-.22,4.78-.67,1.12-.45,1.68-1.66,1.68-3.64,0-1.08-.27-2.54-.8-4.36-.11-.26-.17-.45-.17-.57l-5.5-18.71h-21.4l-4.91,17.33c-.67,2.36-1.01,4.26-1.01,5.7,0,1.98.43,3.29,1.3,3.95.87.65,2.1.98,3.69.98v.77h-14.52v-.77c2.07-.22,3.73-1.12,4.97-2.7,1.24-1.58,2.33-3.98,3.25-7.2l17.46-60.69h4.53ZM1817.06,875.3h19.68l-10.07-33.46h-.17l-9.44,33.46Z"/>
      <path class="cls-3" d="M1862.25,836.87v-.81h20.27c3.38,0,6.37.53,8.96,1.58s4.74,2.49,6.46,4.31c1.72,1.82,3.01,3.87,3.86,6.15s1.28,4.68,1.28,7.2-.4,4.83-1.2,7.11c-.8,2.28-2.05,4.31-3.76,6.08s-3.94,3.18-6.71,4.24-5.96,1.58-9.57,1.58c-1.15,0-3.36-.19-6.63-.57v24.31c0,5.01,2.24,7.59,6.72,7.75v.77h-19.68v-.77c1.93-.06,3.52-.69,4.76-1.89,1.24-1.2,1.87-3.16,1.87-5.86v-53.32c0-1.63-.23-2.98-.67-4.07-.45-1.08-.97-1.86-1.57-2.32-.6-.46-1.27-.81-2.01-1.03-.74-.22-1.25-.37-1.53-.43h-.84ZM1875.22,838.54v33.22c2.15.45,4.28.67,6.38.67,4,0,7.39-1.17,10.18-3.52,2.78-2.35,4.18-6.69,4.18-13.04,0-5.23-1.22-9.53-3.67-12.9s-6.16-5.05-11.14-5.05c-1.93,0-3.9.21-5.92.62Z"/>
      <path class="cls-3" d="M1928.35,836.05v.81c-1.85,0-3.41.59-4.7,1.77s-1.93,3.14-1.93,5.89v53.51c0,2.71.69,4.68,2.06,5.91s2.9,1.84,4.58,1.84v.77h-19.6v-.77c1.79,0,3.34-.6,4.64-1.79s1.95-3.18,1.95-5.96v-53.51c0-2.94-.65-4.95-1.95-6.03s-2.85-1.63-4.64-1.63v-.81h19.6Z"/>
      <path class="cls-3" d="M1962.76,835.19l18.51,60.4c.98,3.13,1.9,5.39,2.77,6.8.87,1.4,1.7,2.29,2.5,2.66.8.37,1.81.61,3.04.74v.77h-20.18v-.77c2.07,0,3.66-.22,4.78-.67s1.68-1.66,1.68-3.64c0-1.08-.27-2.54-.8-4.36-.11-.26-.17-.45-.17-.57l-5.5-18.71h-21.4l-4.91,17.33c-.67,2.36-1.01,4.26-1.01,5.7,0,1.98.43,3.29,1.3,3.95.87.65,2.1.98,3.69.98v.77h-14.52v-.77c2.07-.22,3.73-1.12,4.97-2.7,1.24-1.58,2.33-3.98,3.25-7.2l17.46-60.69h4.53ZM1948.7,875.3h19.68l-10.07-33.46h-.17l-9.44,33.46Z"/>
      <path class="cls-3" d="M2079.72,860.37v.81c-2.07.1-3.75.57-5.04,1.44s-2.43,2.22-3.42,4.07-2.02,4.32-3.08,7.42c-1.2,3.51-2.24,6.31-3.1,8.4-.87,2.09-1.62,3.73-2.27,4.91s-1.26,2.23-1.85,3.16c.2.19,1.25,1.28,3.16,3.25s3.53,3.67,4.87,5.07c3.05,2.94,5.42,4.8,7.11,5.6s3.39,1.23,5.1,1.29v.77h-13.09c-4.81-4.37-8.39-7.83-10.74-10.39-1.59,2.39-4.02,4.97-7.28,7.73-3.26,2.76-7.1,4.14-11.52,4.14-2.38,0-4.57-.46-6.57-1.39s-3.77-2.26-5.31-4c-1.54-1.74-2.71-3.69-3.53-5.84-.81-2.15-1.22-4.4-1.22-6.72,0-4.53,1.22-8.58,3.65-12.13s5.4-6.65,8.9-9.26l-.59-.67c-2.54-3.25-4.54-6.25-5.98-8.97s-2.16-5.58-2.16-8.54.68-5.58,2.04-8.11c1.36-2.54,3.24-4.57,5.64-6.1,2.41-1.53,5.11-2.3,8.1-2.3,3.92,0,7.08,1.24,9.48,3.73s3.61,5.54,3.61,9.14c0,4.05-1.38,7.65-4.13,10.79-2.76,3.14-6.08,6.07-9.97,8.78,1.43,1.88,3.66,4.59,6.71,8.14l6.09,7.28c2.38,2.84,4.48,5.22,6.3,7.13,1.48-2.62,3.08-6.33,4.81-11.15,1.72-4.82,2.58-8.74,2.58-11.77,0-1.98-.45-3.27-1.36-3.88s-2.06-.94-3.46-1.01v-.81h17.54ZM2035.61,870.37c-5.79,4.44-8.69,9.67-8.69,15.7,0,3.1.74,5.93,2.22,8.5s3.41,4.57,5.79,6.01c2.38,1.44,4.78,2.15,7.22,2.15,2.13,0,4.07-.43,5.83-1.29s3.24-1.85,4.45-2.97c1.2-1.12,2.42-2.38,3.65-3.78-2.41-2.62-4.25-4.65-5.52-6.1-1.27-1.45-2.62-3.01-4.03-4.67-1.41-1.66-2.9-3.45-4.45-5.36s-3.71-4.64-6.48-8.18ZM2039.39,864.82c2.97-2.17,5.37-4.45,7.22-6.84,1.85-2.39,2.77-5.31,2.77-8.76,0-2.04-.42-4.02-1.26-5.94s-2.06-3.46-3.65-4.64c-1.6-1.18-3.4-1.77-5.41-1.77-2.8,0-4.93.94-6.4,2.82s-2.2,4.12-2.2,6.7c0,1.75.46,3.77,1.36,6.05s2.06,4.49,3.44,6.63,2.76,4.05,4.13,5.74Z"/>
      <path class="cls-3" d="M2145.48,849.6h-.67c-.39-3.41-1.7-6.41-3.92-8.97-2.22-2.57-5.15-3.85-8.79-3.85-2.38,0-4.49.64-6.34,1.91s-3.27,3.02-4.28,5.22-1.51,4.72-1.51,7.56c0,2.2.3,4.16.9,5.86.6,1.71,1.49,3.21,2.66,4.52,1.18,1.31,2.56,2.53,4.15,3.66s3.75,2.56,6.46,4.28c4.53,2.84,8.06,5.67,10.58,8.5,2.52,2.82,3.78,6.69,3.78,11.61,0,3-.68,5.9-2.04,8.69-1.36,2.79-3.41,5.08-6.15,6.87s-6.14,2.68-10.2,2.68c-2.55,0-4.8-.31-6.76-.93-1.96-.62-3.95-1.49-5.96-2.61-.84-.32-1.41-.48-1.72-.48-.59,0-.97.24-1.15.72s-.43,1.52-.73,3.11h-.71v-17.66h.71c1.01,5.17,2.97,9.08,5.88,11.73,2.91,2.65,6.45,3.97,10.62,3.97,3.13,0,5.64-.67,7.53-2.01,1.89-1.34,3.2-2.97,3.92-4.88.73-1.91,1.09-3.83,1.09-5.74,0-3.96-1.06-7.19-3.17-9.69-2.11-2.5-5.32-5.07-9.63-7.68-2.97-1.85-5.16-3.29-6.59-4.31-1.43-1.02-2.87-2.35-4.34-3.97-1.47-1.63-2.64-3.55-3.5-5.77-.87-2.22-1.3-4.76-1.3-7.63,0-3.32.77-6.49,2.31-9.52,1.54-3.03,3.72-5.46,6.55-7.3s6.03-2.75,9.61-2.75c2.71,0,5.5.53,8.35,1.58.45.26,1.05.38,1.8.38.92,0,1.55-.72,1.89-2.15h.67v15.08Z"/>
      <path class="cls-3" d="M2154.21,836.87v-.81h20.27c3.38,0,6.37.53,8.96,1.58s4.74,2.49,6.46,4.31c1.72,1.82,3.01,3.87,3.86,6.15s1.28,4.68,1.28,7.2-.4,4.83-1.2,7.11c-.8,2.28-2.05,4.31-3.76,6.08s-3.94,3.18-6.71,4.24-5.96,1.58-9.57,1.58c-1.15,0-3.36-.19-6.63-.57v24.31c0,5.01,2.24,7.59,6.72,7.75v.77h-19.68v-.77c1.93-.06,3.52-.69,4.76-1.89,1.24-1.2,1.87-3.16,1.87-5.86v-53.32c0-1.63-.23-2.98-.67-4.07-.45-1.08-.97-1.86-1.57-2.32-.6-.46-1.27-.81-2.01-1.03-.74-.22-1.25-.37-1.53-.43h-.84ZM2167.17,838.54v33.22c2.15.45,4.28.67,6.38.67,4,0,7.39-1.17,10.18-3.52,2.78-2.35,4.18-6.69,4.18-13.04,0-5.23-1.22-9.53-3.67-12.9s-6.16-5.05-11.14-5.05c-1.93,0-3.9.21-5.92.62Z"/>
      <path class="cls-3" d="M2222.86,835.19l18.51,60.4c.98,3.13,1.9,5.39,2.77,6.8.87,1.4,1.7,2.29,2.5,2.66.8.37,1.81.61,3.04.74v.77h-20.18v-.77c2.07,0,3.66-.22,4.78-.67s1.68-1.66,1.68-3.64c0-1.08-.27-2.54-.8-4.36-.11-.26-.17-.45-.17-.57l-5.5-18.71h-21.4l-4.91,17.33c-.67,2.36-1.01,4.26-1.01,5.7,0,1.98.43,3.29,1.3,3.95.87.65,2.1.98,3.69.98v.77h-14.52v-.77c2.07-.22,3.73-1.12,4.97-2.7,1.24-1.58,2.33-3.98,3.25-7.2l17.46-60.69h4.53ZM2208.8,875.3h19.68l-10.07-33.46h-.17l-9.44,33.46Z"/>
    </g>
  </g>
  <g id="silueta">
    <path class="cls-3" d="M736.62,511.75c36.52-91.97,275.17-282.38,275.17-282.38l-342.94,263.69L309.49,231.45s273.47,249.61,283.38,286.53c2.83,10.53,5.94,39.09,8.46,66.76-2.29,15.03-6.08,31.44-13.35,48.33-12.12,28.18-18.04,51.18-19.19,61.89-3.31,30.74,7.66,73.76,38.89,133.83,17.34,26.16,35.61,53.36,52.95,79.53,19.7-26.16,38.46-53.36,58.15-79.53,40.91-74.97,43.94-105.16,41.92-139.37-1.36-23.04-11.24-29.54-23.74-64.9-.91-2.58-1.77-5.14-2.58-7.68-3.24-35.08-5.9-84.63,2.22-105.1Z"/>
    <ellipse class="cls-1" cx="666.55" cy="366.04" rx="74.04" ry="76.46"/>
  </g>
  <g id="coraon">
    <path class="cls-2" d="M771.53,210.63c-41.51,30.31,384.8-169.21,272.78,269-34.2,133.8-383.67,547.31-383.67,547.31,0,0-349.47-413.51-383.67-547.31C164.96,41.42,570.86,229.37,549.75,210.63c-137.71-122.26-474.52-21.16-409.17,272.02,65.35,293.18,520.06,664.87,520.06,664.87,0,0,454.7-371.69,520.06-664.87,65.35-293.18-261.29-380.01-409.17-272.02Z"/>
  </g>
</svg>